0
SECTION
2
HEADER
9
$INSUNITS
70
4
9
$ACADVER
1
AC1014
9
$HANDSEED
5
FFFF
0
ENDSEC
0
SECTION
2
TABLES
0
TABLE
2
VPORT
5
8
100
AcDbSymbolTable
0
ENDTAB
0
TABLE
2
LTYPE
5
5
100
AcDbSymbolTable
0
LTYPE
5
14
100
AcDbSymbolTableRecord
100
AcDbLinetypeTableRecord
2
BYBLOCK
70
0
0
LTYPE
5
15
100
AcDbSymbolTableRecord
100
AcDbLinetypeTableRecord
2
BYLAYER
70
0
0
ENDTAB
0
TABLE
2
LAYER
5
2
100
AcDbSymbolTable
70
2
0
LAYER
5
50
100
AcDbSymbolTableRecord
100
AcDbLayerTableRecord
2
0
70
0
6
CONTINUOUS
0
ENDTAB
0
TABLE
2
STYLE
5
3
100
AcDbSymbolTable
70
1
0
STYLE
5
11
100
AcDbSymbolTableRecord
100
AcDbTextStyleTableRecord
2
STANDARD
70
0
0
ENDTAB
0
TABLE
2
VIEW
5
6
100
AcDbSymbolTable
70
0
0
ENDTAB
0
TABLE
2
UCS
5
7
100
AcDbSymbolTable
70
0
0
ENDTAB
0
TABLE
2
APPID
5
9
100
AcDbSymbolTable
70
2
0
APPID
5
12
100
AcDbSymbolTableRecord
100
AcDbRegAppTableRecord
2
ACAD
70
0
0
ENDTAB
0
TABLE
2
DIMSTYLE
5
A
100
AcDbSymbolTable
70
1
0
ENDTAB
0
TABLE
2
BLOCK_RECORD
5
1
100
AcDbSymbolTable
70
1
0
BLOCK_RECORD
5
1F
100
AcDbSymbolTableRecord
100
AcDbBlockTableRecord
2
*MODEL_SPACE
0
BLOCK_RECORD
5
1B
100
AcDbSymbolTableRecord
100
AcDbBlockTableRecord
2
*PAPER_SPACE
0
ENDTAB
0
ENDSEC
0
SECTION
2
BLOCKS
0
BLOCK
5
20
100
AcDbEntity
100
AcDbBlockBegin
2
*MODEL_SPACE
0
ENDBLK
5
21
100
AcDbEntity
100
AcDbBlockEnd
0
BLOCK
5
1C
100
AcDbEntity
100
AcDbBlockBegin
2
*PAPER_SPACE
0
ENDBLK
5
1D
100
AcDbEntity
100
AcDbBlockEnd
0
ENDSEC
0
SECTION
2
ENTITIES
0
LWPOLYLINE
5
100
100
AcDbEntity
8
0
100
AcDbPolyline
90
8
70
1
43
0.0
10
29.499999999999989
20
-14.999999999999998
10
-29.500000000000011
20
-15
42
-0.41421356237309481
10
-32.500000000000014
20
-12
10
-32.500000000000014
20
12.000000000000004
42
-0.41421356237309503
10
-29.500000000000014
20
15.000000000000004
10
29.499999999999986
20
14.999999999999998
42
-0.41421356237309531
10
32.499999999999986
20
12.000000000000007
10
32.499999999999993
20
-11.999999999999996
42
-0.41421356237309503
0
CIRCLE
5
101
100
AcDbEntity
8
0
100
AcDbCircle
10
-29.000000000000014
20
11.500000000000002
30
0
40
2.9999999999999938
210
0
220
-0
230
1
0
CIRCLE
5
102
100
AcDbEntity
8
0
100
AcDbCircle
10
-24.13000000000002
20
-10.229999999999997
30
0
40
0.69999999999999052
210
0
220
-0
230
1
0
CIRCLE
5
103
100
AcDbEntity
8
0
100
AcDbCircle
10
-21.590000000000018
20
-10.229999999999997
30
0
40
0.69999999999999052
210
0
220
-0
230
1
0
CIRCLE
5
104
100
AcDbEntity
8
0
100
AcDbCircle
10
-19.050000000000015
20
-10.229999999999997
30
0
40
0.69999999999999052
210
0
220
-0
230
1
0
CIRCLE
5
105
100
AcDbEntity
8
0
100
AcDbCircle
10
-16.510000000000019
20
-10.229999999999997
30
0
40
0.69999999999999052
210
0
220
-0
230
1
0
CIRCLE
5
106
100
AcDbEntity
8
0
100
AcDbCircle
10
-13.970000000000017
20
-10.229999999999997
30
0
40
0.69999999999999052
210
0
220
-0
230
1
0
CIRCLE
5
107
100
AcDbEntity
8
0
100
AcDbCircle
10
-11.430000000000014
20
-10.229999999999997
30
0
40
0.69999999999999052
210
0
220
-0
230
1
0
CIRCLE
5
108
100
AcDbEntity
8
0
100
AcDbCircle
10
-8.8900000000000166
20
-10.229999999999997
30
0
40
0.69999999999999052
210
0
220
-0
230
1
0
CIRCLE
5
109
100
AcDbEntity
8
0
100
AcDbCircle
10
-6.3500000000000156
20
-10.229999999999997
30
0
40
0.69999999999999052
210
0
220
-0
230
1
0
CIRCLE
5
110
100
AcDbEntity
8
0
100
AcDbCircle
10
-3.8100000000000152
20
-10.229999999999997
30
0
40
0.69999999999999052
210
0
220
-0
230
1
0
CIRCLE
5
111
100
AcDbEntity
8
0
100
AcDbCircle
10
-1.2700000000000142
20
-10.229999999999997
30
0
40
0.69999999999999052
210
0
220
-0
230
1
0
CIRCLE
5
112
100
AcDbEntity
8
0
100
AcDbCircle
10
1.2699999999999865
20
-10.229999999999997
30
0
40
0.69999999999999052
210
0
220
-0
230
1
0
CIRCLE
5
113
100
AcDbEntity
8
0
100
AcDbCircle
10
3.8099999999999872
20
-10.229999999999997
30
0
40
0.69999999999999052
210
0
220
-0
230
1
0
CIRCLE
5
114
100
AcDbEntity
8
0
100
AcDbCircle
10
6.3499999999999845
20
-10.229999999999997
30
0
40
0.69999999999999052
210
0
220
-0
230
1
0
CIRCLE
5
115
100
AcDbEntity
8
0
100
AcDbCircle
10
8.8899999999999846
20
-10.229999999999997
30
0
40
0.69999999999999052
210
0
220
-0
230
1
0
CIRCLE
5
116
100
AcDbEntity
8
0
100
AcDbCircle
10
11.429999999999987
20
-10.229999999999997
30
0
40
0.69999999999999052
210
0
220
-0
230
1
0
CIRCLE
5
117
100
AcDbEntity
8
0
100
AcDbCircle
10
13.969999999999986
20
-10.229999999999997
30
0
40
0.69999999999999052
210
0
220
-0
230
1
0
CIRCLE
5
118
100
AcDbEntity
8
0
100
AcDbCircle
10
16.509999999999991
20
-10.229999999999997
30
0
40
0.69999999999999052
210
0
220
-0
230
1
0
CIRCLE
5
119
100
AcDbEntity
8
0
100
AcDbCircle
10
19.049999999999986
20
-10.229999999999997
30
0
40
0.69999999999999052
210
0
220
-0
230
1
0
CIRCLE
5
120
100
AcDbEntity
8
0
100
AcDbCircle
10
21.589999999999989
20
-10.229999999999997
30
0
40
0.69999999999999052
210
0
220
-0
230
1
0
CIRCLE
5
121
100
AcDbEntity
8
0
100
AcDbCircle
10
24.129999999999988
20
-10.229999999999997
30
0
40
0.69999999999999052
210
0
220
-0
230
1
0
CIRCLE
5
122
100
AcDbEntity
8
0
100
AcDbCircle
10
-29.000000000000014
20
11.500000000000002
30
0
40
2.9999999999999938
210
0
220
0
230
-1
0
CIRCLE
5
123
100
AcDbEntity
8
0
100
AcDbCircle
10
-29.000000000000018
20
-11.499999999999996
30
0
40
2.9999999999999938
210
0
220
0
230
-1
0
CIRCLE
5
124
100
AcDbEntity
8
0
100
AcDbCircle
10
24.129999999999988
20
-12.769999999999996
30
0
40
0.69999999999999052
210
0
220
-0
230
1
0
CIRCLE
5
125
100
AcDbEntity
8
0
100
AcDbCircle
10
21.589999999999989
20
-12.769999999999996
30
0
40
0.69999999999999052
210
0
220
-0
230
1
0
CIRCLE
5
126
100
AcDbEntity
8
0
100
AcDbCircle
10
19.049999999999986
20
-12.769999999999996
30
0
40
0.69999999999999052
210
0
220
-0
230
1
0
CIRCLE
5
127
100
AcDbEntity
8
0
100
AcDbCircle
10
16.509999999999991
20
-12.769999999999996
30
0
40
0.69999999999999052
210
0
220
-0
230
1
0
CIRCLE
5
128
100
AcDbEntity
8
0
100
AcDbCircle
10
13.969999999999986
20
-12.769999999999996
30
0
40
0.69999999999999052
210
0
220
-0
230
1
0
CIRCLE
5
129
100
AcDbEntity
8
0
100
AcDbCircle
10
11.429999999999987
20
-12.769999999999996
30
0
40
0.69999999999999052
210
0
220
-0
230
1
0
CIRCLE
5
130
100
AcDbEntity
8
0
100
AcDbCircle
10
8.8899999999999846
20
-12.769999999999996
30
0
40
0.69999999999999052
210
0
220
-0
230
1
0
CIRCLE
5
131
100
AcDbEntity
8
0
100
AcDbCircle
10
6.3499999999999845
20
-12.769999999999996
30
0
40
0.69999999999999052
210
0
220
-0
230
1
0
CIRCLE
5
132
100
AcDbEntity
8
0
100
AcDbCircle
10
3.8099999999999872
20
-12.769999999999996
30
0
40
0.69999999999999052
210
0
220
-0
230
1
0
CIRCLE
5
133
100
AcDbEntity
8
0
100
AcDbCircle
10
1.2699999999999865
20
-12.769999999999996
30
0
40
0.69999999999999052
210
0
220
-0
230
1
0
CIRCLE
5
134
100
AcDbEntity
8
0
100
AcDbCircle
10
-1.2700000000000142
20
-12.769999999999996
30
0
40
0.69999999999999052
210
0
220
-0
230
1
0
CIRCLE
5
135
100
AcDbEntity
8
0
100
AcDbCircle
10
-3.8100000000000152
20
-12.769999999999996
30
0
40
0.69999999999999052
210
0
220
-0
230
1
0
CIRCLE
5
136
100
AcDbEntity
8
0
100
AcDbCircle
10
-6.3500000000000156
20
-12.769999999999996
30
0
40
0.69999999999999052
210
0
220
-0
230
1
0
CIRCLE
5
137
100
AcDbEntity
8
0
100
AcDbCircle
10
-8.8900000000000166
20
-12.769999999999996
30
0
40
0.69999999999999052
210
0
220
-0
230
1
0
CIRCLE
5
138
100
AcDbEntity
8
0
100
AcDbCircle
10
-11.430000000000014
20
-12.769999999999996
30
0
40
0.69999999999999052
210
0
220
-0
230
1
0
CIRCLE
5
139
100
AcDbEntity
8
0
100
AcDbCircle
10
-13.970000000000017
20
-12.769999999999996
30
0
40
0.69999999999999052
210
0
220
-0
230
1
0
CIRCLE
5
140
100
AcDbEntity
8
0
100
AcDbCircle
10
-16.510000000000019
20
-12.769999999999996
30
0
40
0.69999999999999052
210
0
220
-0
230
1
0
CIRCLE
5
141
100
AcDbEntity
8
0
100
AcDbCircle
10
-19.050000000000015
20
-12.769999999999996
30
0
40
0.69999999999999052
210
0
220
-0
230
1
0
CIRCLE
5
142
100
AcDbEntity
8
0
100
AcDbCircle
10
-21.590000000000018
20
-12.769999999999996
30
0
40
0.69999999999999052
210
0
220
-0
230
1
0
CIRCLE
5
143
100
AcDbEntity
8
0
100
AcDbCircle
10
-24.13000000000002
20
-12.769999999999996
30
0
40
0.69999999999999052
210
0
220
-0
230
1
0
CIRCLE
5
144
100
AcDbEntity
8
0
100
AcDbCircle
10
-29.000000000000018
20
-11.499999999999996
30
0
40
2.9999999999999938
210
0
220
-0
230
1
0
CIRCLE
5
145
100
AcDbEntity
8
0
100
AcDbCircle
10
-29.000000000000014
20
11.500000000000002
30
0
40
2.9999999999999938
210
0
220
-0
230
1
0
CIRCLE
5
146
100
AcDbEntity
8
0
100
AcDbCircle
10
-29.000000000000014
20
11.500000000000002
30
0
40
1.3499999999999988
210
0
220
-0
230
1
0
CIRCLE
5
147
100
AcDbEntity
8
0
100
AcDbCircle
10
29.000000000000014
20
11.500000000000002
30
0
40
2.9999999999999938
210
0
220
0
230
1
0
CIRCLE
5
148
100
AcDbEntity
8
0
100
AcDbCircle
10
29.000000000000014
20
11.500000000000002
30
0
40
1.3499999999999988
210
0
220
0
230
1
0
CIRCLE
5
149
100
AcDbEntity
8
0
100
AcDbCircle
10
29.000000000000018
20
-11.499999999999996
30
0
40
2.9999999999999938
210
0
220
0
230
1
0
CIRCLE
5
150
100
AcDbEntity
8
0
100
AcDbCircle
10
-29.000000000000018
20
-11.499999999999996
30
0
40
2.9999999999999938
210
0
220
-0
230
1
0
CIRCLE
5
151
100
AcDbEntity
8
0
100
AcDbCircle
10
-29.000000000000018
20
-11.499999999999996
30
0
40
1.3500000000000023
210
0
220
-0
230
1
0
ENDSEC
0
SECTION
2
OBJECTS
0
DICTIONARY
5
C
100
AcDbDictionary
3
ACAD_GROUP
350
D
3
ACAD_MLINESTYLE
350
17
0
DICTIONARY
5
D
100
AcDbDictionary
0
DICTIONARY
5
1A
330
C
100
AcDbDictionary
0
DICTIONARY
5
17
100
AcDbDictionary
0
ENDSEC
0
EOF
