0
SECTION
2
HEADER
9
$INSUNITS
70
4
9
$ACADVER
1
AC1014
9
$HANDSEED
5
FFFF
0
ENDSEC
0
SECTION
2
TABLES
0
TABLE
2
VPORT
5
8
100
AcDbSymbolTable
0
ENDTAB
0
TABLE
2
LTYPE
5
5
100
AcDbSymbolTable
0
LTYPE
5
14
100
AcDbSymbolTableRecord
100
AcDbLinetypeTableRecord
2
BYBLOCK
70
0
0
LTYPE
5
15
100
AcDbSymbolTableRecord
100
AcDbLinetypeTableRecord
2
BYLAYER
70
0
0
ENDTAB
0
TABLE
2
LAYER
5
2
100
AcDbSymbolTable
70
2
0
LAYER
5
50
100
AcDbSymbolTableRecord
100
AcDbLayerTableRecord
2
0
70
0
6
CONTINUOUS
0
ENDTAB
0
TABLE
2
STYLE
5
3
100
AcDbSymbolTable
70
1
0
STYLE
5
11
100
AcDbSymbolTableRecord
100
AcDbTextStyleTableRecord
2
STANDARD
70
0
0
ENDTAB
0
TABLE
2
VIEW
5
6
100
AcDbSymbolTable
70
0
0
ENDTAB
0
TABLE
2
UCS
5
7
100
AcDbSymbolTable
70
0
0
ENDTAB
0
TABLE
2
APPID
5
9
100
AcDbSymbolTable
70
2
0
APPID
5
12
100
AcDbSymbolTableRecord
100
AcDbRegAppTableRecord
2
ACAD
70
0
0
ENDTAB
0
TABLE
2
DIMSTYLE
5
A
100
AcDbSymbolTable
70
1
0
ENDTAB
0
TABLE
2
BLOCK_RECORD
5
1
100
AcDbSymbolTable
70
1
0
BLOCK_RECORD
5
1F
100
AcDbSymbolTableRecord
100
AcDbBlockTableRecord
2
*MODEL_SPACE
0
BLOCK_RECORD
5
1B
100
AcDbSymbolTableRecord
100
AcDbBlockTableRecord
2
*PAPER_SPACE
0
ENDTAB
0
ENDSEC
0
SECTION
2
BLOCKS
0
BLOCK
5
20
100
AcDbEntity
100
AcDbBlockBegin
2
*MODEL_SPACE
0
ENDBLK
5
21
100
AcDbEntity
100
AcDbBlockEnd
0
BLOCK
5
1C
100
AcDbEntity
100
AcDbBlockBegin
2
*PAPER_SPACE
0
ENDBLK
5
1D
100
AcDbEntity
100
AcDbBlockEnd
0
ENDSEC
0
SECTION
2
ENTITIES
0
LINE
5
100
100
AcDbEntity
8
0
100
AcDbLine
10
-6.5886586466215826
20
35.411891592554021
30
0
11
-6.8684301410406317
21
35.896469972189969
31
0
0
ARC
5
101
100
AcDbEntity
8
0
100
AcDbCircle
10
-7.5179491925417752
20
35.521469969932312
30
0
40
0.74999999997079236
210
6.1629758593828611e-33
220
-1.0674587228029985e-32
230
1
100
AcDbArc
50
30.000000200442113
51
119.99999999999989
0
LINE
5
102
100
AcDbEntity
8
0
100
AcDbLine
10
-7.8929491925271691
20
36.170989022745346
30
9.2444637326987216e-33
11
-11.35705080742612
21
34.170989022932602
31
0
0
ARC
5
103
100
AcDbEntity
8
0
100
AcDbCircle
10
-10.982050807440725
20
33.521469970089903
30
0
40
0.74999999999648259
210
2.1349174499424559e-32
220
1.2325951643656056e-32
230
1
100
AcDbArc
50
119.99999999886683
51
210.00000090332549
0
LINE
5
104
100
AcDbEntity
8
0
100
AcDbLine
10
-11.631569854363752
20
33.146469959851345
30
9.2444635872673388e-33
11
-11.351798398647887
21
32.661891601687415
31
0
0
ARC
5
105
100
AcDbEntity
8
0
100
AcDbCircle
10
-12.303231815763107
20
32.112581242199532
30
0
40
1.0986206889751584
210
1.2354576973399678e-32
220
1.1166230840791371e-32
230
1
100
AcDbArc
50
-47.892306001314587
51
30.000000903325432
0
ARC
5
106
100
AcDbEntity
8
0
100
AcDbCircle
10
-17.940457071939569
20
22.348620688511573
30
3.7632527118098115e-47
40
1.0986206880556892
210
-6.4634167260893361e-34
220
-7.2533765232392651e-43
230
1
100
AcDbArc
50
270.00000006429536
51
347.89251968193105
0
LINE
5
107
100
AcDbEntity
8
0
100
AcDbLine
10
-17.940457070706735
20
21.250000000455884
30
0
11
-18.500000000212701
21
21.249999999827985
31
0
0
ARC
5
108
100
AcDbEntity
8
0
100
AcDbCircle
10
-18.499999999980503
20
20.49999999986251
30
0
40
0.74999999996547828
210
-6.931113449852727e-57
220
-2.1458402335364738e-66
230
1
100
AcDbArc
50
90.000000017738643
51
180
0
LINE
5
109
100
AcDbEntity
8
0
100
AcDbLine
10
-19.249999999945985
20
20.499999999941775
30
-1.7877158077942509e-51
11
-19.250000000002139
21
16.500000000164952
31
0
0
ARC
5
110
100
AcDbEntity
8
0
100
AcDbCircle
10
-18.500000000002089
20
16.500000000155108
30
0
40
0.75000000000005063
210
2.3545898446536057e-54
220
1.7936620343357659e-43
230
1
100
AcDbArc
50
180
51
270.00000007816692
0
LINE
5
111
100
AcDbEntity
8
0
100
AcDbLine
10
-18.499999998978886
20
15.75000000015743
30
-2.5094492584261588e-41
11
-17.940457074934539
21
15.750000000688919
31
0
0
ARC
5
112
100
AcDbEntity
8
0
100
AcDbCircle
10
-17.940457073435724
20
14.651379311085925
30
0
40
1.098620689602992
210
0
220
-0
230
1
100
AcDbArc
50
12.107694026733233
51
90.000000078166906
0
ARC
5
113
100
AcDbEntity
8
0
100
AcDbCircle
10
-12.303231820095956
20
4.8874187636619641
30
3.0790249460262094e-47
40
1.098620687055702
210
6.0258964227457627e-33
220
1.0437158758120608e-32
230
1
100
AcDbArc
50
-30.000000017168446
51
47.901914977953375
0
LINE
5
114
100
AcDbEntity
8
0
100
AcDbLine
10
-11.351798396147203
20
4.3381084198490196
30
0
11
-11.631569860327085
21
3.8535300297168611
31
0
0
ARC
5
115
100
AcDbEntity
8
0
100
AcDbCircle
10
-10.98205080744796
20
3.4785300299708473
30
0
40
0.74999999990833643
210
3.4211388270190111e-48
220
5.9255862725290684e-48
230
1
100
AcDbArc
50
150.00000001836187
51
240.00000000386703
0
LINE
5
116
100
AcDbEntity
8
0
100
AcDbLine
10
-11.357050807358291
20
2.8290109771865906
30
-2.3386549233187037e-42
11
-7.8929491925796711
21
0.82901097723182604
31
0
0
ARC
5
117
100
AcDbEntity
8
0
100
AcDbCircle
10
-7.5179491925689934
20
1.4785300300640445
30
0
40
0.75000000000004707
210
-2.3702345085506259e-47
220
1.3684555316060844e-47
230
1
100
AcDbArc
50
239.99999999906015
51
330.00000007864088
0
LINE
5
118
100
AcDbEntity
8
0
100
AcDbLine
10
-6.8684301392187397
20
1.1035300309571403
30
1.2594480587471097e-41
11
-6.5886586778157872
21
1.5881084176713616
31
0
0
ARC
5
119
100
AcDbEntity
8
0
100
AcDbCircle
10
-5.4422288299373855
20
0.92621683848978287
30
6.6712207163901203e-47
40
1.3237831615102165
210
1.0674587258049332e-32
220
-6.1629758073877787e-33
230
1
100
AcDbArc
50
89.999999999999417
51
150.00000007864116
0
LINE
5
120
100
AcDbEntity
8
0
100
AcDbLine
10
-5.4422288299373722
20
2.2499999999999991
30
8.158443598614696e-33
11
5.442228829851282
21
2.2499999999999871
31
0
0
ARC
5
121
100
AcDbEntity
8
0
100
AcDbCircle
10
5.442228829851282
20
0.92621683827940471
30
4.861730685829017e-62
40
1.3237831617205806
210
2.4308653429145085e-63
220
-2.1895288505075267e-47
230
1
100
AcDbArc
50
29.999999947385717
51
90
0
LINE
5
122
100
AcDbEntity
8
0
100
AcDbLine
10
6.5886586776111988
20
1.5881084180869371
30
1.4492307098966015e-47
11
6.8684301394100045
21
1.1035300307159459
31
0
0
ARC
5
123
100
AcDbEntity
8
0
100
AcDbCircle
10
7.5179491925525106
20
1.4785300300387474
30
0
40
0.74999999992482635
210
6.1629758115274026e-33
220
-1.0674587255659367e-32
230
1
100
AcDbArc
50
209.99999994357819
51
300.00000000443544
0
LINE
5
124
100
AcDbEntity
8
0
100
AcDbLine
10
7.8929491925652062
20
0.82901097729454887
30
-9.2444637419512668e-33
11
11.357050807419968
21
2.8290109770656025
31
0
0
ARC
5
125
100
AcDbEntity
8
0
100
AcDbCircle
10
10.982050807431312
20
3.4785300299100368
30
0
40
0.74999999999961586
210
1.0674587249696193e-32
220
6.1629758218558877e-33
230
1
100
AcDbArc
50
-60.000000000983718
51
30.000000078821977
0
LINE
5
126
100
AcDbEntity
8
0
100
AcDbLine
10
11.631569859754737
20
3.8535300308041509
30
-9.2444637204562912e-33
11
11.351798397283385
21
4.3381084172466551
31
0
0
ARC
5
127
100
AcDbEntity
8
0
100
AcDbCircle
10
12.303231822847804
20
4.8874187633574726
30
2.634276898266868e-46
40
1.0986206896038442
210
1.6837563077836058e-32
220
-4.5116114043877363e-33
230
1
100
AcDbArc
50
132.10769402669143
51
210.00000007882224
0
ARC
5
128
100
AcDbEntity
8
0
100
AcDbCircle
10
17.940457076567931
20
14.651379305761878
30
-2.309268709519657e-47
40
1.0986206937822307
210
6.4633977825194152e-34
220
3.012940861817397e-33
230
1
100
AcDbArc
50
90.000000065084464
51
167.89231027769642
0
LINE
5
129
100
AcDbEntity
8
0
100
AcDbLine
10
17.940457075319966
20
15.749999999544109
30
-3.3100791791280718e-33
11
18.500000000819238
21
15.750000000179718
31
0
0
ARC
5
130
100
AcDbEntity
8
0
100
AcDbCircle
10
18.499999999967283
20
16.500000000150074
30
0
40
0.74999999997035438
210
0
220
0
230
1
100
AcDbArc
50
-89.999999934915479
51
0
0
LINE
5
131
100
AcDbEntity
8
0
100
AcDbLine
10
19.249999999937639
20
16.500000000216016
30
0
11
19.249999999996334
21
20.499999999892211
31
0
0
ARC
5
132
100
AcDbEntity
8
0
100
AcDbCircle
10
18.499999999996287
20
20.499999999900535
30
0
40
0.75000000000004619
210
-1.9913648889154431e-54
220
-1.7936620343357659e-43
230
1
100
AcDbArc
50
0
51
89.999999999457188
0
LINE
5
133
100
AcDbEntity
8
0
100
AcDbLine
10
18.500000000003393
20
21.249999999900588
30
1.3452465257519112e-43
11
17.940457073458443
21
21.249999999311079
31
0
0
ARC
5
134
100
AcDbEntity
8
0
100
AcDbCircle
10
17.940457073435731
20
22.348620688914064
30
3.4848885556022394e-57
40
1.0986206896029838
210
-1.4832342843056471e-53
220
7.1746481373430427e-43
230
1
100
AcDbArc
50
192.10769402673267
51
270.0000000011845
0
ARC
5
135
100
AcDbEntity
8
0
100
AcDbCircle
10
1.2002925699560509e-15
20
18.5
30
0
40
17.250000000000021
210
6.4634166935156196e-34
220
-3.012940456135777e-33
230
1
100
AcDbArc
50
12.10769402673308
51
47.89230594848469
0
ARC
5
136
100
AcDbEntity
8
0
100
AcDbCircle
10
12.303231833241519
20
32.112581236306355
30
5.6448790677147172e-47
40
1.0986206963228327
210
9.1444485581100442e-33
220
-8.2648741369868784e-33
230
1
100
AcDbArc
50
150.00000019686067
51
227.89230594848453
0
LINE
5
137
100
AcDbEntity
8
0
100
AcDbLine
10
11.351798399215237
20
32.661891581198773
30
1.3240314956600034e-32
11
11.631569861594899
21
33.146469972393227
31
0
0
ARC
5
138
100
AcDbEntity
8
0
100
AcDbCircle
10
10.982050807484613
20
33.52146997015204
30
0
40
0.74999999998095479
210
-6.1629757853626854e-33
220
-1.0674587270765553e-32
230
1
100
AcDbArc
50
-29.999999803139104
51
60.000000000674007
0
LINE
5
139
100
AcDbEntity
8
0
100
AcDbLine
10
11.357050807467452
20
34.17098902297829
30
9.2444637328240064e-33
11
7.8929491925743278
21
36.170989022767316
31
0
0
ARC
5
140
100
AcDbEntity
8
0
100
AcDbCircle
10
7.5179491925659949
20
35.52146996993374
30
0
40
0.75000000000004829
210
-1.0674587249511603e-32
220
6.162975822175743e-33
230
1
100
AcDbArc
50
59.999999999267132
51
150.00000070771461
0
LINE
5
141
100
AcDbEntity
8
0
100
AcDbLine
10
6.8684301350956423
20
35.896469961910938
30
-1.8488927466118668e-32
11
6.5886586847484203
21
35.411891581578971
31
0
0
ARC
5
142
100
AcDbEntity
8
0
100
AcDbCircle
10
5.6372252626852992
20
35.961201908253699
30
-7.3554484821737224e-47
40
1.0986206768535878
210
-1.6837563015902325e-32
220
-4.5116116355279495e-33
230
1
100
AcDbArc
50
252.10769397418457
51
330.00000070771506
0
ARC
5
143
100
AcDbEntity
8
0
100
AcDbCircle
10
3.8486216820458372
20
36.44045758583669
30
0
40
1.0986213989149036
210
0
220
0
230
1
100
AcDbArc
50
180.000028990613
51
257.89230327668537
0
LINE
5
144
100
AcDbEntity
8
0
100
AcDbLine
10
2.7500002831310741
20
36.440457029930414
30
0
11
2.750000000000175
21
37.000000379502623
31
0
0
ARC
5
145
100
AcDbEntity
8
0
100
AcDbCircle
10
2.0000000000002709
20
37
30
0
40
0.75000000000000011
210
5.9480425555972504e-45
220
-1.175494350822137e-38
230
1
100
AcDbArc
50
2.8990613018801833e-05
51
89.999999999999801
0
LINE
5
146
100
AcDbEntity
8
0
100
AcDbLine
10
2.0000000000002736
20
37.75
30
8.8162076311660353e-39
11
-2.0000000000002354
21
37.750000000000007
31
0
0
ARC
5
147
100
AcDbEntity
8
0
100
AcDbCircle
10
-2.0000000000002367
20
37.000000000000007
30
0
40
0.75000000000000178
210
1.0657230513496083e-63
220
-1.577587025976147e-78
230
1
100
AcDbArc
50
89.999999999999901
51
180.000028990613
0
LINE
5
148
100
AcDbEntity
8
0
100
AcDbLine
10
-2.7500000000001403
20
36.999999620497384
30
-4.154659751370839e-54
11
-2.7499997168696737
21
36.440457116729704
31
0
0
LINE
5
149
100
AcDbEntity
8
0
100
AcDbLine
10
-2.7499997168696737
20
36.440457116729704
30
0
11
-2.7499998656005658
21
32.750000040301536
31
0
0
LINE
5
150
100
AcDbEntity
8
0
100
AcDbLine
10
-6.2597191072015299
20
34.842151532125037
30
0
11
-6.5886586466215826
21
35.411891592554021
31
0
0
LINE
5
151
100
AcDbEntity
8
0
100
AcDbLine
10
-19.249999999974062
20
18.500000000053362
30
-8.9385790389712544e-52
11
19.249999999966985
21
18.500000000054115
31
0
0
LINE
5
152
100
AcDbEntity
8
0
100
AcDbLine
10
-4.3045567110766569e-11
20
2.2499999999999929
30
4.079221799307348e-33
11
1.915134717478395e-14
21
37.75
31
4.4081038155830176e-39
0
ARC
5
153
100
AcDbEntity
8
0
100
AcDbCircle
10
1.2002925699560509e-15
20
18.5
30
0
40
17.250000000000011
210
6.4634166936093263e-34
220
-3.0129404561337612e-33
230
1
100
AcDbArc
50
192.10769402673307
51
202.4585966509531
0
LINE
5
154
100
AcDbEntity
8
0
100
AcDbLine
10
13.677753182874078
20
7.9889787256651772
30
0
11
13.44791281149714
21
9.2924682452694416
31
7.7037197775489434e-33
0
LINE
5
155
100
AcDbEntity
8
0
100
AcDbLine
10
13.44791281149714
20
9.2924682452694416
30
7.7037197775489434e-33
11
14.697912811497144
21
11.457531754730537
31
-3.0814879110195774e-32
0
LINE
5
156
100
AcDbEntity
8
0
100
AcDbLine
10
14.697912811497144
20
11.457531754730537
30
-3.0814879110195774e-32
11
15.941688034729665
21
11.910228914104966
31
0
0
ARC
5
157
100
AcDbEntity
8
0
100
AcDbCircle
10
1.2002925699560509e-15
20
18.5
30
0
40
17.250000000000018
210
-7.5052879133076895e-33
220
2.6445324310589682e-32
230
1
100
AcDbArc
50
132.10769399868519
51
167.892292362821
0
LINE
5
158
100
AcDbEntity
8
0
100
AcDbLine
10
6.2499999970744877
20
6.1587715842755495
30
0
11
6.2499999996502602
21
7.9999999984084695
31
0
0
ARC
5
159
100
AcDbEntity
8
0
100
AcDbCircle
10
5.2499999996509752
20
7.9999999998074127
30
0
40
0.99999999999928479
210
-0
220
0
230
1
100
AcDbArc
50
0
51
90.000000011074434
0
LINE
5
160
100
AcDbEntity
8
0
100
AcDbLine
10
5.2499999994576898
20
8.9999999998066968
30
0
11
-5.2500000001449676
21
8.9999999977771985
31
0
0
ARC
5
161
100
AcDbEntity
8
0
100
AcDbCircle
10
-5.2499999999516822
20
7.9999999977771967
30
0
40
1.0000000000000031
210
0
220
0
230
1
100
AcDbArc
50
90.000000011074434
51
180
0
LINE
5
162
100
AcDbEntity
8
0
100
AcDbLine
10
-6.2499999999516849
20
7.9999999975839113
30
0
11
-6.2499999997411937
21
6.158771585008898
31
0
0
ARC
5
163
100
AcDbEntity
8
0
100
AcDbCircle
10
-6.8736685999697453
20
6.1587715848883509
30
0
40
0.62366860022855386
210
3.2896146200763312e-43
220
-2.2792301787001866e-42
230
1
100
AcDbArc
50
-119.11640503181606
51
0
0
ARC
5
164
100
AcDbEntity
8
0
100
AcDbCircle
10
1.2002925699560509e-15
20
18.5
30
0
40
14.750000000000028
210
0
220
0
230
1
100
AcDbArc
50
221.68516418382129
51
240.8835949681839
0
LINE
5
165
100
AcDbEntity
8
0
100
AcDbLine
10
-11.015453516577383
20
8.6907042136489885
30
0
11
-10.827886509203307
21
9.7544495725296958
31
0
0
LINE
5
166
100
AcDbEntity
8
0
100
AcDbLine
10
-10.827886509203307
20
9.7544495725296958
30
0
11
-12.987812094868794
21
13.495550427470327
31
0
0
LINE
5
167
100
AcDbEntity
8
0
100
AcDbLine
10
-12.987812094868794
20
13.495550427470327
30
0
11
-14.002826102504331
21
13.864985313612912
31
0
0
ARC
5
168
100
AcDbEntity
8
0
100
AcDbCircle
10
1.2002925699560509e-15
20
18.5
30
0
40
14.750000000000021
210
-2.1529531649932781e-33
220
5.7746916499831e-33
230
1
100
AcDbArc
50
171.32368626349515
51
198.31483581617849
0
ARC
5
169
100
AcDbEntity
8
0
100
AcDbCircle
10
-13.592649593311702
20
20.574217209803223
30
-1.6678051790975301e-47
40
1.0000000000000018
210
9.2969821917637691e-34
220
6.0924487855294471e-33
230
1
100
AcDbArc
50
59.999999999985022
51
171.32368626349466
0
LINE
5
170
100
AcDbEntity
8
0
100
AcDbLine
10
-13.092649593311474
20
21.440242613587532
30
-5.741064529111783e-33
11
-11.959292143520068
21
20.785898384861859
31
0
0
LINE
5
171
100
AcDbEntity
8
0
100
AcDbLine
10
-11.959292143520068
20
20.785898384861859
30
0
11
-7.9592921435218669
21
27.714101615138404
31
0
0
LINE
5
172
100
AcDbEntity
8
0
100
AcDbLine
10
-7.9592921435218669
20
27.714101615138404
30
0
11
-9.0926495933115206
21
28.368445843863014
31
0
0
ARC
5
173
100
AcDbEntity
8
0
100
AcDbCircle
10
-8.5926495933113216
20
29.234471247647331
30
0
40
0.99999999999999845
210
0
220
0
230
1
100
AcDbArc
50
128.67631373649988
51
239.99999999998658
0
ARC
5
174
100
AcDbEntity
8
0
100
AcDbCircle
10
1.2002925699560509e-15
20
18.5
30
0
40
14.750000000000021
210
-1.7325465956721047e-32
220
1.9199992830243858e-33
230
1
100
AcDbArc
50
117.44742853544588
51
128.67631373649959
0
ARC
5
175
100
AcDbEntity
8
0
100
AcDbCircle
10
-7.2597191072759557
20
32.477087625317274
30
0
40
1.0000000000744182
210
5.4940247558226958e-32
220
-1.3251730245443196e-31
230
1
100
AcDbArc
50
-62.552571464553992
51
0
0
LINE
5
176
100
AcDbEntity
8
0
100
AcDbLine
10
-6.2597191072015388
20
32.477087625317274
30
5.2570133037841845e-33
11
-6.2597191072015299
21
34.842151532125037
31
0
0
LINE
5
177
100
AcDbEntity
8
0
100
AcDbLine
10
-15.94168803472968
20
11.910228914104996
30
0
11
-14.697912811497156
21
11.457531754730566
31
0
0
LINE
5
178
100
AcDbEntity
8
0
100
AcDbLine
10
-14.697912811497156
20
11.457531754730566
30
0
11
-13.447912811497151
21
9.2924682452694647
31
-3.0814879110195774e-32
0
LINE
5
179
100
AcDbEntity
8
0
100
AcDbLine
10
-13.447912811497151
20
9.2924682452694647
30
-3.0814879110195774e-32
11
-13.677753182874099
21
7.9889787256652038
31
-2.6963019221421302e-32
0
ARC
5
180
100
AcDbEntity
8
0
100
AcDbCircle
10
1.2002925699560509e-15
20
18.5
30
0
40
17.250000000000018
210
9.7734100975971894e-33
220
7.510628402227215e-33
230
1
100
AcDbArc
50
217.54140334904676
51
227.89169399957595
0
ARC
5
181
100
AcDbEntity
8
0
100
AcDbCircle
10
-1.7499998656005624
20
32.750000000000014
30
0
40
1.0000000000000042
210
-2.9608885500809881e-47
220
-7.346839692639292e-40
230
1
100
AcDbArc
50
179.9999979086902
51
270
0
LINE
5
182
100
AcDbEntity
8
0
100
AcDbLine
10
-1.7499998656005624
20
31.750000000000011
30
-7.346839692639323e-40
11
6.2063441555728547
21
31.75
31
0
0
ARC
5
183
100
AcDbEntity
8
0
100
AcDbCircle
10
6.2063441555728636
20
30.589569259120594
30
-3.5672948907270412e-60
40
1.160430740879401
210
2.6687459062782608e-47
220
3.0090208367444026e-47
230
1
100
AcDbArc
50
62.825688790221776
51
90.000000000000441
0
ARC
5
184
100
AcDbEntity
8
0
100
AcDbCircle
10
1.2002925699560509e-15
20
18.5
30
0
40
14.750000000000025
210
-9.2505647907368841e-34
220
3.2463971997620189e-33
230
1
100
AcDbArc
50
-18.314835816178615
51
62.825688790231297
0
LINE
5
185
100
AcDbEntity
8
0
100
AcDbLine
10
14.002826102504331
20
13.864985313612895
30
2.8000503710206726e-32
11
12.987812094868778
21
13.495550427470304
31
-4.622231866529366e-32
0
LINE
5
186
100
AcDbEntity
8
0
100
AcDbLine
10
12.987812094868778
20
13.495550427470304
30
-4.622231866529366e-32
11
10.827886509203291
21
9.754449572529678
31
0
0
LINE
5
187
100
AcDbEntity
8
0
100
AcDbLine
10
10.827886509203291
20
9.754449572529678
30
0
11
11.015453516577363
21
8.6907042136489761
31
0
0
ARC
5
188
100
AcDbEntity
8
0
100
AcDbCircle
10
1.2002925699560509e-15
20
18.5
30
0
40
14.750000000000025
210
-7.8491061708212003e-33
220
-9.5037159180676981e-33
230
1
100
AcDbArc
50
299.1164050194356
51
318.31483581617863
0
ARC
5
189
100
AcDbEntity
8
0
100
AcDbCircle
10
6.8736685973030394
20
6.1587715834030723
30
0
40
0.62366860022855186
210
-1.5064332349198645e-41
220
-1.0768357351112013e-32
230
1
100
AcDbArc
50
180
51
299.11640501943617
0
ARC
5
190
100
AcDbEntity
8
0
100
AcDbCircle
10
1.2002925699560509e-15
20
18.5
30
0
40
17.249999999999154
210
-0
220
0
230
1
100
AcDbArc
50
337.54140334904992
51
347.8923056840174
0
ARC
5
191
100
AcDbEntity
8
0
100
AcDbCircle
10
1.2002925699560509e-15
20
18.5
30
0
40
17.250000000000021
210
1.852274184157282e-34
220
5.7373853291095202e-34
230
1
100
AcDbArc
50
72.107693974184869
51
77.89230327668561
0
ARC
5
192
100
AcDbEntity
8
0
100
AcDbCircle
10
1.2002925699560509e-15
20
18.5
30
0
40
17.249999999999151
210
-6.2507242972232963e-34
220
6.9159464365927858e-34
230
1
100
AcDbArc
50
312.10769402673571
51
322.45859665094997
0
ENDSEC
0
SECTION
2
OBJECTS
0
DICTIONARY
5
C
100
AcDbDictionary
3
ACAD_GROUP
350
D
3
ACAD_MLINESTYLE
350
17
0
DICTIONARY
5
D
100
AcDbDictionary
0
DICTIONARY
5
1A
330
C
100
AcDbDictionary
0
DICTIONARY
5
17
100
AcDbDictionary
0
ENDSEC
0
EOF
