0
SECTION
2
HEADER
9
$INSUNITS
70
4
9
$ACADVER
1
AC1014
9
$HANDSEED
5
FFFF
0
ENDSEC
0
SECTION
2
TABLES
0
TABLE
2
VPORT
5
8
100
AcDbSymbolTable
0
ENDTAB
0
TABLE
2
LTYPE
5
5
100
AcDbSymbolTable
0
LTYPE
5
14
100
AcDbSymbolTableRecord
100
AcDbLinetypeTableRecord
2
BYBLOCK
70
0
0
LTYPE
5
15
100
AcDbSymbolTableRecord
100
AcDbLinetypeTableRecord
2
BYLAYER
70
0
0
ENDTAB
0
TABLE
2
LAYER
5
2
100
AcDbSymbolTable
70
2
0
LAYER
5
50
100
AcDbSymbolTableRecord
100
AcDbLayerTableRecord
2
0
70
0
6
CONTINUOUS
0
ENDTAB
0
TABLE
2
STYLE
5
3
100
AcDbSymbolTable
70
1
0
STYLE
5
11
100
AcDbSymbolTableRecord
100
AcDbTextStyleTableRecord
2
STANDARD
70
0
0
ENDTAB
0
TABLE
2
VIEW
5
6
100
AcDbSymbolTable
70
0
0
ENDTAB
0
TABLE
2
UCS
5
7
100
AcDbSymbolTable
70
0
0
ENDTAB
0
TABLE
2
APPID
5
9
100
AcDbSymbolTable
70
2
0
APPID
5
12
100
AcDbSymbolTableRecord
100
AcDbRegAppTableRecord
2
ACAD
70
0
0
ENDTAB
0
TABLE
2
DIMSTYLE
5
A
100
AcDbSymbolTable
70
1
0
ENDTAB
0
TABLE
2
BLOCK_RECORD
5
1
100
AcDbSymbolTable
70
1
0
BLOCK_RECORD
5
1F
100
AcDbSymbolTableRecord
100
AcDbBlockTableRecord
2
*MODEL_SPACE
0
BLOCK_RECORD
5
1B
100
AcDbSymbolTableRecord
100
AcDbBlockTableRecord
2
*PAPER_SPACE
0
ENDTAB
0
ENDSEC
0
SECTION
2
BLOCKS
0
BLOCK
5
20
100
AcDbEntity
100
AcDbBlockBegin
2
*MODEL_SPACE
0
ENDBLK
5
21
100
AcDbEntity
100
AcDbBlockEnd
0
BLOCK
5
1C
100
AcDbEntity
100
AcDbBlockBegin
2
*PAPER_SPACE
0
ENDBLK
5
1D
100
AcDbEntity
100
AcDbBlockEnd
0
ENDSEC
0
SECTION
2
ENTITIES
0
ARC
5
100
100
AcDbEntity
8
0
100
AcDbCircle
10
-7.2597175197942265
20
32.477086373983269
30
0
40
0.99999887737232984
210
-0
220
0
230
1
100
AcDbArc
50
-62.552574491235575
51
0
0
LINE
5
101
100
AcDbEntity
8
0
100
AcDbLine
10
-6.2597186424218973
20
32.477086373983269
30
0
11
-6.2597186424218947
21
34.842151710154823
31
0
0
LINE
5
102
100
AcDbEntity
8
0
100
AcDbLine
10
-6.2597186424218947
20
34.842151710154823
30
0
11
-6.8684296457840173
21
35.896470095104249
31
0
0
ARC
5
103
100
AcDbEntity
8
0
100
AcDbCircle
10
-7.5179488186287156
20
35.521470025818545
30
0
40
0.75000013857141778
210
0
220
-0
230
1
100
AcDbArc
50
29.999999999999638
51
120.00000000000057
0
LINE
5
104
100
AcDbEntity
8
0
100
AcDbLine
10
-7.8929488879144296
20
36.170989198663236
30
0
11
-11.357051112060523
21
34.170988847052108
31
0
0
ARC
5
105
100
AcDbEntity
8
0
100
AcDbCircle
10
-10.982051151499315
20
33.52146986252378
30
0
40
0.74999992112240788
210
0
220
0
230
1
100
AcDbArc
50
120.00000000000041
51
209.99999871268159
0
LINE
5
106
100
AcDbEntity
8
0
100
AcDbLine
10
-11.631570144453129
20
33.14646991655593
30
0
11
-11.351799023129081
21
32.661890447737115
31
0
0
ARC
5
107
100
AcDbEntity
8
0
100
AcDbCircle
10
-12.303232030621407
20
32.112580373247866
30
0
40
1.0986201917320111
210
0
220
0
230
1
100
AcDbArc
50
-47.892303684157611
51
29.999998712680867
0
ARC
5
108
100
AcDbEntity
8
0
100
AcDbCircle
10
-1.5934279068080316e-16
20
18.5
30
0
40
17.249999996648413
210
0
220
0
230
1
100
AcDbArc
50
132.10769631584216
51
167.89061423147353
0
ARC
5
109
100
AcDbEntity
8
0
100
AcDbCircle
10
-17.940457028456912
20
22.348620753493673
30
0
40
1.0986202632966569
210
0
220
0
230
1
100
AcDbArc
50
270.00000000000034
51
347.9188650816622
0
LINE
5
110
100
AcDbEntity
8
0
100
AcDbLine
10
-17.940457028456905
20
21.250000490197017
30
0
11
-18.499999861428581
21
21.250000490197017
31
0
0
ARC
5
111
100
AcDbEntity
8
0
100
AcDbCircle
10
-18.49999982779249
20
20.499996126055922
30
0
40
0.75000436414109539
210
0
220
0
230
1
100
AcDbArc
50
90.00000256959315
51
179.99969671441173
0
LINE
5
112
100
AcDbEntity
8
0
100
AcDbLine
10
-19.250004191923079
20
20.500000096077411
30
0
11
-19.249999924119255
21
16.500000296789917
31
0
0
ARC
5
113
100
AcDbEntity
8
0
100
AcDbCircle
10
-18.500000003233964
20
16.500000294898562
30
0
40
0.74999992088529144
210
0
220
0
230
1
100
AcDbArc
50
180
51
270.00000282420422
0
LINE
5
114
100
AcDbEntity
8
0
100
AcDbLine
10
-18.499999966265221
20
15.750000374013272
30
0
11
-17.94045640491753
21
15.749999186029559
31
0
0
ARC
5
115
100
AcDbEntity
8
0
100
AcDbCircle
10
-17.940456933019679
20
14.651378449689867
30
0
40
1.0986207363398186
210
0
220
-0
230
1
100
AcDbArc
50
12.107696748679722
51
89.999972458171172
0
ARC
5
116
100
AcDbEntity
8
0
100
AcDbCircle
10
-1.5934279068080316e-16
20
18.5
30
0
40
17.249999996648413
210
0
220
0
230
1
100
AcDbArc
50
192.10769674867956
51
227.88781761922922
0
ARC
5
117
100
AcDbEntity
8
0
100
AcDbCircle
10
-12.303228215532982
20
4.8874146681429069
30
0
40
1.098615027084942
210
-0
220
0
230
1
100
AcDbArc
50
-29.999906757101272
51
47.963062593464109
0
LINE
5
118
100
AcDbEntity
8
0
100
AcDbLine
10
-11.351798799158729
20
4.3381087029517413
30
0
11
-11.631570215644565
21
3.8535303950927746
31
0
0
ARC
5
119
100
AcDbEntity
8
0
100
AcDbCircle
10
-10.982050348841369
20
3.4785297190593445
30
0
40
0.75000104293098735
210
0
220
0
230
1
100
AcDbArc
50
149.99998636517498
51
239.99999674529158
0
LINE
5
120
100
AcDbEntity
8
0
100
AcDbLine
10
-11.357050907203089
20
2.8290097843183339
30
0
11
-7.8929494651009353
21
0.82901107129677687
31
0
0
ARC
5
121
100
AcDbEntity
8
0
100
AcDbCircle
10
-7.5179495032574462
20
1.4785300527827383
30
0
40
0.74999991912878194
210
0
220
0
230
1
100
AcDbArc
50
239.99999979895475
51
330.00001308681146
0
LINE
5
122
100
AcDbEntity
8
0
100
AcDbLine
10
-6.8684304348026926
20
1.1035302415736554
30
0
11
-6.5886585383444318
21
1.5881091111844947
31
0
0
ARC
5
123
100
AcDbEntity
8
0
100
AcDbCircle
10
-5.4422220968139019
20
0.92620472439027357
30
0
40
1.3237952756097209
210
0
220
0
230
1
100
AcDbArc
50
90.000000000000142
51
149.9996627044159
0
LINE
5
124
100
AcDbEntity
8
0
100
AcDbLine
10
-5.4422220968139055
20
2.2499999999999947
30
0
11
5.4422364588340546
21
2.2499999999999987
31
0
0
ARC
5
125
100
AcDbEntity
8
0
100
AcDbCircle
10
5.4422364588340546
20
0.92622596039887561
30
0
40
1.3237715028575594
210
0
220
-0
230
1
100
AcDbArc
50
29.999825123446733
51
90
0
LINE
5
126
100
AcDbEntity
8
0
100
AcDbLine
10
6.5886582292981846
20
1.5881082127547241
30
0
11
6.8684296457840111
21
1.1035299048957592
31
0
0
ARC
5
127
100
AcDbEntity
8
0
100
AcDbCircle
10
7.5179495763582675
20
1.4785301148925334
30
0
40
0.75000086514004183
210
0
220
0
230
1
100
AcDbArc
50
209.99998036625459
51
300.00000110394069
0
LINE
5
128
100
AcDbEntity
8
0
100
AcDbLine
10
7.8929500214428465
20
0.82901032004623298
30
0
11
11.35705053611751
21
2.8290106681217919
31
0
0
ARC
5
129
100
AcDbEntity
8
0
100
AcDbCircle
10
10.982050578595107
20
3.4785296503480811
30
0
40
0.74999991760938167
210
-0
220
0
230
1
100
AcDbArc
50
-60.000000113113941
51
30.000018947763088
0
LINE
5
130
100
AcDbEntity
8
0
100
AcDbLine
10
11.631569436068228
20
3.8535298239492328
30
0
11
11.351797085881135
21
4.3381084337927911
31
0
0
ARC
5
131
100
AcDbEntity
8
0
100
AcDbCircle
10
12.303230370311036
20
4.8874180868748187
30
0
40
1.0986202208635025
210
0
220
0
230
1
100
AcDbArc
50
132.10768924532735
51
209.9999724581713
0
ARC
5
132
100
AcDbEntity
8
0
100
AcDbCircle
10
-1.5934279068080316e-16
20
18.5
30
0
40
17.249999996648405
210
-0
220
0
230
1
100
AcDbArc
50
312.10768924532709
51
347.89034057775177
0
ARC
5
133
100
AcDbEntity
8
0
100
AcDbCircle
10
17.940458064066483
20
14.651383466563669
30
0
40
1.0986160432398036
210
0
220
0
230
1
100
AcDbArc
50
90.000054009822861
51
167.92338837173233
0
LINE
5
134
100
AcDbEntity
8
0
100
AcDbLine
10
17.940457028456908
20
15.749999509802983
30
0
11
18.499999861428577
21
15.749999509802988
31
0
0
ARC
5
135
100
AcDbEntity
8
0
100
AcDbCircle
10
18.500000003725376
20
16.500000218042214
30
0
40
0.75000070823923803
210
0
220
0
230
1
100
AcDbArc
50
-90.000010870664369
51
4.9045561968554799e-06
0
LINE
5
136
100
AcDbEntity
8
0
100
AcDbLine
10
19.250000711964613
20
16.500000282322127
30
0
11
19.25000007831764
21
20.49999949043994
31
0
0
ARC
5
137
100
AcDbEntity
8
0
100
AcDbCircle
10
18.500000160471146
20
20.499999490029246
30
0
40
0.74999991784649556
210
0
220
-0
230
1
100
AcDbArc
50
0
51
90.000014836238947
0
LINE
5
138
100
AcDbEntity
8
0
100
AcDbLine
10
18.499999966265253
20
21.249999407875716
30
0
11
17.940456404917342
21
21.250000405622437
31
0
0
ARC
5
139
100
AcDbEntity
8
0
100
AcDbCircle
10
17.94045693301943
20
22.348621033577206
30
0
40
1.0986206279548971
210
0
220
0
230
1
100
AcDbArc
50
192.1076951710121
51
269.99997245817161
0
ARC
5
140
100
AcDbEntity
8
0
100
AcDbCircle
10
-1.5934279068080316e-16
20
18.5
30
0
40
17.249999996648405
210
0
220
-0
230
1
100
AcDbArc
50
12.107695171012521
51
47.892322575534394
0
ARC
5
141
100
AcDbEntity
8
0
100
AcDbCircle
10
12.303227837261383
20
32.112584756152685
30
0
40
1.0986149873434163
210
0
220
0
230
1
100
AcDbArc
50
150.00005737691944
51
227.89232257553434
0
LINE
5
142
100
AcDbEntity
8
0
100
AcDbLine
10
11.351798799158741
20
32.661891297048257
30
0
11
11.631570215644569
21
33.146469604907239
31
0
0
ARC
5
143
100
AcDbEntity
8
0
100
AcDbCircle
10
10.982050505892857
20
33.521469925358716
30
0
40
0.75000072912941873
210
-0
220
0
230
1
100
AcDbArc
50
-29.999996108659964
51
60.000004358648859
0
LINE
5
144
100
AcDbEntity
8
0
100
AcDbLine
10
11.357050821046803
20
34.170989638168962
30
0
11
7.8929496192993254
21
36.170988715933078
31
0
0
ARC
5
145
100
AcDbEntity
8
0
100
AcDbCircle
10
7.5179496604946374
20
35.521469732145079
30
0
40
0.74999991960300894
210
0
220
-0
230
1
100
AcDbArc
50
60.00000008793161
51
150.00000471869947
0
LINE
5
146
100
AcDbEntity
8
0
100
AcDbLine
10
6.8684306463983358
20
35.896469638454249
30
0
11
6.5886587695948196
21
35.411890755302892
31
0
0
ARC
5
147
100
AcDbEntity
8
0
100
AcDbCircle
10
5.6372258674327549
20
35.961201407281663
30
0
40
1.0986203892582123
210
0
220
0
230
1
100
AcDbArc
50
252.10769169650695
51
329.99997245817144
0
ARC
5
148
100
AcDbEntity
8
0
100
AcDbCircle
10
-1.5934279068080316e-16
20
18.5
30
0
40
17.249999996648405
210
0
220
-0
230
1
100
AcDbArc
50
72.107691696506976
51
77.892305973464289
0
ARC
5
149
100
AcDbEntity
8
0
100
AcDbCircle
10
3.8486206888267298
20
36.440457073330144
30
0
40
1.0986206888267476
210
0
220
0
230
1
100
AcDbArc
50
180
51
257.89230597346614
0
LINE
5
150
100
AcDbEntity
8
0
100
AcDbLine
10
2.7499999999999822
20
36.44045707333013
30
0
11
2.7499999999999849
21
37
31
0
0
ARC
5
151
100
AcDbEntity
8
0
100
AcDbCircle
10
2.0000000000002371
20
37
30
0
40
0.74999999999974754
210
-0
220
0
230
1
100
AcDbArc
50
0
51
90.000000000000185
0
LINE
5
152
100
AcDbEntity
8
0
100
AcDbLine
10
2.0000000000002349
20
37.749999999999751
30
0
11
-2.0000000000002705
21
37.75
31
0
0
ARC
5
153
100
AcDbEntity
8
0
100
AcDbCircle
10
-2.0000000000002705
20
37
30
0
40
0.75000000000000178
210
0
220
-0
230
1
100
AcDbArc
50
90
51
180
0
LINE
5
154
100
AcDbEntity
8
0
100
AcDbLine
10
-2.75000000000027
20
37
30
0
11
-2.7500000000000178
21
32.75000000000005
31
0
0
ARC
5
155
100
AcDbEntity
8
0
100
AcDbCircle
10
-1.750000000000012
20
32.750000000000007
30
0
40
1.0000000000000058
210
0
220
0
230
1
100
AcDbArc
50
180
51
270
0
LINE
5
156
100
AcDbEntity
8
0
100
AcDbLine
10
-1.7500000000000124
20
31.750000000000004
30
0
11
6.2063441574662948
21
31.75
31
0
0
ARC
5
157
100
AcDbEntity
8
0
100
AcDbCircle
10
6.2063441574662903
20
30.589569258489785
30
0
40
1.1604307415102166
210
0
220
-0
230
1
100
AcDbArc
50
62.825688781916348
51
89.999999999999787
0
ARC
5
158
100
AcDbEntity
8
0
100
AcDbCircle
10
-1.5934279068080316e-16
20
18.5
30
0
40
14.750000002919935
210
-0
220
0
230
1
100
AcDbArc
50
-59.417936827478599
51
62.825688781915701
0
ARC
5
159
100
AcDbEntity
8
0
100
AcDbCircle
10
7.2500000004911023
20
6.2321558505132248
30
0
40
0.50000000000000488
210
0
220
0
230
1
100
AcDbArc
50
180
51
300.58206317252132
0
LINE
5
160
100
AcDbEntity
8
0
100
AcDbLine
10
6.7500000004910978
20
6.2321558506521191
30
0
11
6.7500000004910987
21
8.5000000000007105
31
0
0
ARC
5
161
100
AcDbEntity
8
0
100
AcDbCircle
10
5.7500000004918128
20
8.5000000000007141
30
0
40
0.9999999999992859
210
-0
220
0
230
1
100
AcDbArc
50
0
51
90
0
LINE
5
162
100
AcDbEntity
8
0
100
AcDbLine
10
5.7500000004918128
20
9.4999999999999982
30
0
11
-5.7500000004910801
21
9.4999999999999964
31
0
0
ARC
5
163
100
AcDbEntity
8
0
100
AcDbCircle
10
-5.7500000004910792
20
8.4999999999999947
30
0
40
1.0000000000000031
210
0
220
0
230
1
100
AcDbArc
50
90.000000000000057
51
180
0
LINE
5
164
100
AcDbEntity
8
0
100
AcDbLine
10
-6.7500000004910818
20
8.4999999999999947
30
0
11
-6.7500000004910818
21
6.2321558512430864
31
0
0
ARC
5
165
100
AcDbEntity
8
0
100
AcDbCircle
10
-7.2499999979472758
20
6.2321558512430855
30
0
40
0.49999999745619478
210
0
220
0
230
1
100
AcDbArc
50
-120.58206316520908
51
0
0
ARC
5
166
100
AcDbEntity
8
0
100
AcDbCircle
10
-1.5934279068080316e-16
20
18.5
30
0
40
14.74999928050045
210
0
220
0
230
1
100
AcDbArc
50
117.4474255087645
51
239.41793683479094
0
ENDSEC
0
SECTION
2
OBJECTS
0
DICTIONARY
5
C
100
AcDbDictionary
3
ACAD_GROUP
350
D
3
ACAD_MLINESTYLE
350
17
0
DICTIONARY
5
D
100
AcDbDictionary
0
DICTIONARY
5
1A
330
C
100
AcDbDictionary
0
DICTIONARY
5
17
100
AcDbDictionary
0
ENDSEC
0
EOF
